:SAMPLES-PER-SECOND 30
:FULLY-SPECIFIED
:DEGREES
133
root  -76.3679 41.6071 -8.2756 178.032 -86.4935 177.679
RightUpLeg  0.105972 -7.38782 -3.5695
RightLeg  5.75136 -3.21223 3.49268
RightFoot  -0.760744 0.270194 -2.98534
RightToes  0.00048216 0.542163 -0.142577
Spine  5.43696 -0.662689 4.57739
Spine1  0.491854 -0.141514 -2.21496
HEad  -9.46725 -12.8216 0.204348
LeftShoulder1  1.78503 -2.61913 -22.7401
LeftArm  -17.1877 25.6532 -12.1964
LeftForeArm  14.7905 -8.39521 -1.25861
LeftHand  -0.25398 0.0180481 5.50724
RightShoulder  3.09323 5.31358 29.0852
RightArm  -17.9689 -18.3136 14.7096
RightForeArm  -9.08204 6.32211 4.19073
RightHand  -1.97157 6.64436 -19.2582
LeftUpLeg  -0.466866 6.86036 6.10132
LeftLeg  4.58737 9.46405 -3.17762
LeftFoot  0.481439 0.118982 -1.1749
LeftToes  1.06246e-005 4.65856e-005 -8.18504e-006
134
root  -76.6873 41.6578 -8.22614 178.237 -86.0671 178.296
RightUpLeg  0.0577392 -7.20568 -3.52896
RightLeg  4.93416 -3.04354 3.49388
RightFoot  -0.669527 0.257817 -2.78711
RightToes  0.00048216 0.542163 -0.142577
Spine  4.54067 -0.500378 4.91602
Spine1  0.208034 0.163041 -3.1507
HEad  -9.70026 -10.2567 0.264974
LeftShoulder1  1.30113 -1.50063 -19.358
LeftArm  -18.7869 25.1286 -9.86778
LeftForeArm  15.474 -10.5731 -0.923907
LeftHand  -0.25398 0.0180481 5.50724
RightShoulder  2.49118 4.08619 26.7672
RightArm  -18.8659 -16.4182 10.4206
RightForeArm  -12.6631 4.96076 3.82154
RightHand  -2.0173 6.28404 -20.2487
LeftUpLeg  -0.578951 6.52617 5.85592
LeftLeg  4.18924 10.402 -3.02495
LeftFoot  0.15788 0.0764137 -0.768056
LeftToes  1.06246e-005 4.65856e-005 -8.18504e-006
135
root  -76.9662 41.6902 -8.20835 178.441 -85.958 178.741
RightUpLeg  0.035196 -7.08875 -3.45601
RightLeg  4.40555 -3.06933 3.44172
RightFoot  -0.671662 0.25476 -2.75328
RightToes  0.00048216 0.542163 -0.142577
Spine  3.91291 -0.458929 4.68395
Spine1  -0.101429 0.212241 -3.38079
HEad  -9.89074 -7.94472 0.38385
LeftShoulder1  0.952064 -0.590168 -16.347
LeftArm  -20.7614 24.4393 -7.88038
LeftForeArm  16.7448 -12.8901 -0.759027
LeftHand  -0.25398 0.0180481 5.50724
RightShoulder  2.01676 3.07264 24.5114
RightArm  -18.4508 -14.1343 6.4019
RightForeArm  -17.5711 3.56011 4.01955
RightHand  -2.16123 6.39666 -21.4549
LeftUpLeg  -0.650139 6.30585 5.72944
LeftLeg  3.78751 10.7106 -2.96871
LeftFoot  -0.0732485 0.0803299 -0.820306
LeftToes  1.06246e-005 4.65856e-005 -8.18504e-006
136
root  -77.2132 41.7127 -8.18498 177.879 -85.7859 179.721
RightUpLeg  0.180816 -7.01199 -3.40583
RightLeg  3.94269 -2.96215 3.44639
RightFoot  -0.639591 0.252068 -2.736
RightToes  0.00048216 0.542163 -0.142577
Spine  3.71122 -0.439025 4.54648
Spine1  -0.691634 0.240479 -3.59209
HEad  -9.88645 -5.5628 0.45403
LeftShoulder1  0.708103 0.0944769 -13.6759
LeftArm  -21.7738 23.4981 -6.31263
LeftForeArm  15.8939 -14.1011 -0.979415
LeftHand  -0.25398 0.0180481 5.50724
RightShoulder  1.65837 2.40499 21.7677
RightArm  -19.609 -12.4736 3.66164
RightForeArm  -18.3891 3.10931 3.68676
RightHand  -1.99372 5.68839 -21.0258
LeftUpLeg  -0.446144 6.39053 5.82381
LeftLeg  3.29719 10.6927 -3.18903
LeftFoot  0.00763225 0.0882925 -0.94406
LeftToes  1.06246e-005 4.65856e-005 -8.18504e-006
137
root  -77.4218 41.7326 -8.14647 177.704 -85.6812 -179.873
RightUpLeg  0.478177 -7.02431 -3.47739
RightLeg  3.48912 -2.8557 3.47511
RightFoot  -0.631724 0.234065 -2.54083
RightToes  0.00048216 0.542163 -0.142577
Spine  3.95819 -0.494756 4.58045
Spine1  -1.58954 0.242978 -4.05831
HEad  -9.57924 -3.24143 0.553054
LeftShoulder1  0.553675 0.523741 -11.0691
LeftArm  -23.1159 22.4714 -5.15747
LeftForeArm  16.7075 -15.0012 -1.057
LeftHand  -0.25398 0.0180481 5.50724
RightShoulder  1.37898 1.90697 18.9943
RightArm  -20.2638 -11.9779 1.74595
RightForeArm  -18.6555 5.30292 3.79464
RightHand  -1.80135 4.68309 -20.7202
LeftUpLeg  -0.126623 6.46247 5.83935
LeftLeg  2.89713 10.7586 -3.36257
LeftFoot  -0.0298509 0.083554 -0.870414
LeftToes  1.06246e-005 4.65856e-005 -8.18504e-006
